<?xml version="1.0" encoding="UTF-8" standalone="no"?>
<!DOCTYPE svg PUBLIC "-//W3C//DTD SVG 1.1//EN" "http://www.w3.org/Graphics/SVG/1.1/DTD/svg11.dtd">
<svg width="100%" height="100%" viewBox="0 0 5 5" version="1.1" xmlns="http://www.w3.org/2000/svg" xmlns:xlink="http://www.w3.org/1999/xlink" xml:space="preserve" xmlns:serif="http://www.serif.com/" style="fill-rule:evenodd;clip-rule:evenodd;stroke-linejoin:round;stroke-miterlimit:2;">
    <g id="phone-ringing" serif:id="phone ringing">
        <path d="M0.5,0.697c0.435,-0.431 1.033,-0.697 1.693,-0.697c1.326,-0 2.404,1.077 2.404,2.404c-0,0.66 -0.267,1.258 -0.698,1.693l-3.399,-3.4Z" style="fill:#386fa4;fill-opacity:0.13;" />
        <path d="M1.234,1.432c0.247,-0.243 0.585,-0.394 0.959,-0.394c0.753,0 1.365,0.612 1.365,1.366c0,0.373 -0.15,0.712 -0.393,0.958l-1.931,-1.93Z" style="fill:#386fa4;fill-opacity:0.29;" />
        <path d="M1.231,1.426l1.95,1.944l1.204,-0l0,1.221l-1.221,0l-0,-0.004l-0.004,0.004l-3.16,-3.15l0.01,-0.009l-0,-1.219l1.221,0l0,1.213Z" style="fill:#d6d6d6;" />
        <path d="" />
    </g>
</svg>