<?xml version="1.0" encoding="UTF-8" standalone="no"?><!DOCTYPE svg PUBLIC "-//W3C//DTD SVG 1.1//EN" "http://www.w3.org/Graphics/SVG/1.1/DTD/svg11.dtd"><svg width="100%" height="100%" viewBox="0 0 46 53" version="1.1" xmlns="http://www.w3.org/2000/svg" xmlns:xlink="http://www.w3.org/1999/xlink" xml:space="preserve" xmlns:serif="http://www.serif.com/" style="fill-rule:evenodd;clip-rule:evenodd;stroke-linejoin:round;stroke-miterlimit:2;"><g><rect x="13.982" y="0" width="10.825" height="10.48"/><rect x="13.982" y="10.48" width="10.48" height="10.48" style="fill:#386fa4;"/><rect x="13.982" y="20.959" width="10.48" height="10.48" style="fill:#05c3c7;"/><circle cx="15.999" cy="22.987" r="0.52" style="fill:#f8f8f8;"/><circle cx="15.999" cy="25.113" r="0.52" style="fill:#f8f8f8;"/><circle cx="15.999" cy="27.239" r="0.52" style="fill:#f8f8f8;"/><circle cx="15.999" cy="29.365" r="0.52" style="fill:#f8f8f8;"/><circle cx="18.148" cy="22.987" r="0.52" style="fill:#f8f8f8;"/><circle cx="18.148" cy="25.113" r="0.52" style="fill:#f8f8f8;"/><circle cx="18.148" cy="27.239" r="0.52" style="fill:#f8f8f8;"/><circle cx="18.148" cy="29.365" r="0.52" style="fill:#f8f8f8;"/><circle cx="20.296" cy="22.987" r="0.52" style="fill:#f8f8f8;"/><circle cx="20.296" cy="25.113" r="0.52" style="fill:#f8f8f8;"/><circle cx="20.296" cy="27.239" r="0.52" style="fill:#f8f8f8;"/><circle cx="20.296" cy="29.365" r="0.52" style="fill:#f8f8f8;"/><circle cx="22.445" cy="22.987" r="0.52" style="fill:#f8f8f8;"/><circle cx="22.445" cy="25.113" r="0.52" style="fill:#f8f8f8;"/><circle cx="22.445" cy="27.239" r="0.52" style="fill:#f8f8f8;"/><circle cx="22.445" cy="29.365" r="0.52" style="fill:#f8f8f8;"/><rect x="13.982" y="31.439" width="10.48" height="10.48" style="fill:#386fa4;"/><rect x="13.982" y="41.918" width="10.48" height="10.48" style="fill:#06c3c7;"/><rect x="24.462" y="0" width="10.48" height="10.48"/><rect x="24.462" y="10.468" width="10.48" height="10.491"/><rect x="24.462" y="31.439" width="10.48" height="10.48" style="fill:#013f6b;"/><path d="M34.941,31.439l-10.479,10.479l10.479,0l0,-10.479Z" style="fill:#fafafa;"/><rect x="24.462" y="41.918" width="10.48" height="10.48" style="fill:#386fa4;"/><rect x="34.918" y="0" width="10.48" height="10.48" style="fill:#386fa4;"/><path d="M45.398,0l-5.24,5.24l5.24,5.24l0,-10.48Z" style="fill:#f8f8f8;"/><path d="M27.978,45.377l-6.994,-6.995l-6.995,6.995l13.989,-0Z" style="fill:#c3e7f7;"/><path d="M34.918,0l5.24,5.24l-5.24,5.24l0,-10.48Z" style="fill:#f8f8f8;"/><path d="M24.462,31.439l-5.24,5.24l-5.24,-5.24l10.48,-0Z" style="fill:#c3e7f7;"/><rect x="34.918" y="10.48" width="10.48" height="10.48" style="fill:#0094d2;"/><rect x="24.462" y="20.959" width="20.936" height="5.217" style="fill:#013f6b;"/><rect x="34.98" y="26.176" width="10.425" height="5.263" style="fill:#05c3c7;"/><rect x="34.941" y="31.439" width="10.48" height="10.48" style="fill:#386fa4;"/><rect x="34.941" y="41.918" width="10.48" height="10.48" style="fill:#0156a1;"/><path d="M13.994,10.491c-0,5.781 4.686,10.468 10.468,10.468l-0,-5.234c-2.891,0 -5.234,-2.343 -5.234,-5.234l-5.234,0Z" style="fill:#f8f8f8;"/><path d="M24.462,20.959c5.781,0 10.468,-4.687 10.468,-10.468c-0,-5.778 -4.691,-10.468 -10.468,-10.468c-5.782,-0 -10.468,4.687 -10.468,10.468l5.234,0c-0,-2.891 2.343,-5.234 5.234,-5.234c2.888,-0 5.234,2.345 5.234,5.234c-0,2.891 -2.344,5.234 -5.234,5.234l-0,5.234Z" style="fill:#05c3c7;"/><path d="M34.941,31.439l10.48,10.479l-10.48,0l0,-10.479Z" style="fill:#013f6b;"/><circle cx="36.958" cy="43.969" r="0.52" style="fill:#f8f8f8;"/><circle cx="36.958" cy="46.095" r="0.52" style="fill:#f8f8f8;"/><circle cx="36.958" cy="48.221" r="0.52" style="fill:#f8f8f8;"/><circle cx="36.958" cy="50.347" r="0.52" style="fill:#f8f8f8;"/><circle cx="39.107" cy="43.969" r="0.52" style="fill:#f8f8f8;"/><circle cx="39.107" cy="46.095" r="0.52" style="fill:#f8f8f8;"/><circle cx="16.79" cy="47.838" r="0.52" style="fill:#f8f8f8;"/><circle cx="39.107" cy="48.221" r="0.52" style="fill:#f8f8f8;"/><circle cx="16.79" cy="49.964" r="0.52" style="fill:#f8f8f8;"/><circle cx="39.107" cy="50.347" r="0.52" style="fill:#f8f8f8;"/><circle cx="41.255" cy="43.969" r="0.52" style="fill:#f8f8f8;"/><circle cx="41.255" cy="46.095" r="0.52" style="fill:#f8f8f8;"/><circle cx="18.939" cy="47.838" r="0.52" style="fill:#f8f8f8;"/><circle cx="41.255" cy="48.221" r="0.52" style="fill:#f8f8f8;"/><circle cx="18.939" cy="49.964" r="0.52" style="fill:#f8f8f8;"/><circle cx="41.255" cy="50.347" r="0.52" style="fill:#f8f8f8;"/><circle cx="43.404" cy="43.969" r="0.52" style="fill:#f8f8f8;"/><circle cx="43.404" cy="46.095" r="0.52" style="fill:#f8f8f8;"/><circle cx="43.404" cy="48.221" r="0.52" style="fill:#f8f8f8;"/><circle cx="43.404" cy="50.347" r="0.52" style="fill:#f8f8f8;"/><path d="M34.973,38.409l-0,-6.995l-6.995,0l0,6.995l6.995,-0Z" style="fill:#386fa4;"/><path d="M27.978,38.409l0,-6.995l-6.994,0l-0,6.995l6.994,-0Z" style="fill:#0156a1;"/><path d="M20.984,38.409l-0,-6.995l-6.995,0l0,6.995l6.995,-0Z" style="fill:#003e6d;"/><path d="M19.977,32.76c0,0.192 -0.155,0.347 -0.347,0.347c-0.191,0 -0.347,-0.155 -0.347,-0.347c0,-0.191 0.156,-0.347 0.347,-0.347c0.192,0 0.347,0.156 0.347,0.347Z" style="fill:#f8f8f8;"/><path d="M18.558,32.76c0,0.192 -0.155,0.347 -0.347,0.347c-0.191,0 -0.347,-0.155 -0.347,-0.347c0,-0.191 0.156,-0.347 0.347,-0.347c0.192,0 0.347,0.156 0.347,0.347Z" style="fill:#f8f8f8;"/><path d="M17.139,32.76c0,0.192 -0.155,0.347 -0.347,0.347c-0.192,0 -0.347,-0.155 -0.347,-0.347c-0,-0.191 0.155,-0.347 0.347,-0.347c0.192,0 0.347,0.156 0.347,0.347Z" style="fill:#f8f8f8;"/><path d="M15.72,32.76c-0,0.192 -0.156,0.347 -0.347,0.347c-0.192,0 -0.347,-0.155 -0.347,-0.347c-0,-0.191 0.155,-0.347 0.347,-0.347c0.191,0 0.347,0.156 0.347,0.347Z" style="fill:#f8f8f8;"/><path d="M19.977,34.194c0,0.192 -0.155,0.348 -0.347,0.348c-0.191,-0 -0.347,-0.156 -0.347,-0.348c0,-0.191 0.156,-0.347 0.347,-0.347c0.192,0 0.347,0.156 0.347,0.347Z" style="fill:#f8f8f8;"/><path d="M18.558,34.194c0,0.192 -0.155,0.348 -0.347,0.348c-0.191,-0 -0.347,-0.156 -0.347,-0.348c0,-0.191 0.156,-0.347 0.347,-0.347c0.192,0 0.347,0.156 0.347,0.347Z" style="fill:#f8f8f8;"/><path d="M17.139,34.194c0,0.192 -0.155,0.348 -0.347,0.348c-0.192,-0 -0.347,-0.156 -0.347,-0.348c-0,-0.191 0.155,-0.347 0.347,-0.347c0.192,0 0.347,0.156 0.347,0.347Z" style="fill:#f8f8f8;"/><path d="M15.72,34.194c-0,0.192 -0.156,0.348 -0.347,0.348c-0.192,-0 -0.347,-0.156 -0.347,-0.348c-0,-0.191 0.155,-0.347 0.347,-0.347c0.191,0 0.347,0.156 0.347,0.347Z" style="fill:#f8f8f8;"/><path d="M19.977,35.629c0,0.191 -0.155,0.347 -0.347,0.347c-0.191,-0 -0.347,-0.156 -0.347,-0.347c0,-0.192 0.156,-0.347 0.347,-0.347c0.192,-0 0.347,0.155 0.347,0.347Z" style="fill:#f8f8f8;"/><path d="M18.558,35.629c0,0.191 -0.155,0.347 -0.347,0.347c-0.191,-0 -0.347,-0.156 -0.347,-0.347c0,-0.192 0.156,-0.347 0.347,-0.347c0.192,-0 0.347,0.155 0.347,0.347Z" style="fill:#f8f8f8;"/><path d="M17.139,35.629c0,0.191 -0.155,0.347 -0.347,0.347c-0.192,-0 -0.347,-0.156 -0.347,-0.347c-0,-0.192 0.155,-0.347 0.347,-0.347c0.192,-0 0.347,0.155 0.347,0.347Z" style="fill:#f8f8f8;"/><path d="M15.72,35.629c-0,0.191 -0.156,0.347 -0.347,0.347c-0.192,-0 -0.347,-0.156 -0.347,-0.347c-0,-0.192 0.155,-0.347 0.347,-0.347c0.191,-0 0.347,0.155 0.347,0.347Z" style="fill:#f8f8f8;"/><path d="M19.977,37.063c0,0.191 -0.155,0.347 -0.347,0.347c-0.191,-0 -0.347,-0.156 -0.347,-0.347c0,-0.192 0.156,-0.347 0.347,-0.347c0.192,-0 0.347,0.155 0.347,0.347Z" style="fill:#f8f8f8;"/><path d="M18.558,37.063c0,0.191 -0.155,0.347 -0.347,0.347c-0.191,-0 -0.347,-0.156 -0.347,-0.347c0,-0.192 0.156,-0.347 0.347,-0.347c0.192,-0 0.347,0.155 0.347,0.347Z" style="fill:#f8f8f8;"/><path d="M17.139,37.063c0,0.191 -0.155,0.347 -0.347,0.347c-0.192,-0 -0.347,-0.156 -0.347,-0.347c-0,-0.192 0.155,-0.347 0.347,-0.347c0.192,-0 0.347,0.155 0.347,0.347Z" style="fill:#f8f8f8;"/><path d="M15.72,37.063c-0,0.191 -0.156,0.347 -0.347,0.347c-0.192,-0 -0.347,-0.156 -0.347,-0.347c-0,-0.192 0.155,-0.347 0.347,-0.347c0.191,-0 0.347,0.155 0.347,0.347Z" style="fill:#f8f8f8;"/><path d="M13.989,38.409l0,-6.995l-6.994,0l-0,6.995l6.994,-0Z" style="fill:#386fa4;"/><path d="M6.995,38.409l-0,-6.995l-6.995,0l-0,6.995l6.995,-0Z" style="fill:#386fa4;"/><path d="M34.973,45.403l-0,-6.994l-6.995,-0l0,6.994l6.995,0Z" style="fill:#386fa4;"/><path d="M27.978,45.403l0,-6.994l-6.994,-0l-0,6.994l6.994,0Z" style="fill:#386fa4;"/><path d="M13.989,45.403l0,-6.994l-6.994,-0l-0,6.994l6.994,0Z"/><path d="M13.989,45.403l-6.994,-6.994l-0,6.994l6.994,0Z" style="fill:#fafafa;"/><path d="M6.995,45.403l-0,-6.994l-6.995,-0l-0,6.994l6.995,0Z" style="fill:#05c3c7;"/><path d="M34.973,52.383l-0,-6.995l-6.995,0l0,6.995l6.995,-0Z" style="fill:#386fa4;"/><path d="M34.973,52.383l-3.498,-3.498l-3.497,3.498l6.995,-0Z" style="fill:#06c3c7;"/><path d="M34.93,26.16l-5.234,-5.234l-5.234,5.234l10.468,0Z" style="fill:#06c3c7;"/><path d="M45.392,20.951l-5.234,5.234l-5.234,-5.234l10.468,-0Z" style="fill:#0094d2;"/><path d="M6.995,38.409l3.497,-3.497l-3.497,-3.498l-0,6.995Z" style="fill:#05c3c7;"/><path d="M34.973,45.388l-3.498,3.497l-3.497,-3.497l6.995,0Z" style="fill:#f8f8f8;"/><path d="M13.989,38.409l-3.497,-3.497l3.497,-3.498l0,6.995Z" style="fill:#05c3c7;"/><path d="M27.978,52.383l0,-6.995l-6.994,0l-0,6.995l6.994,-0Z" style="fill:#fafafa;"/><path d="M13.989,52.398l0,-6.995l-6.994,0l-0,6.995l6.994,-0Z" style="fill:#06c3c7;"/><path d="M6.995,52.398l-0,-6.995l-6.995,0l-0,6.995l6.995,-0Z"/><path d="M27.971,31.422c-3.859,-0 -6.987,3.128 -6.987,6.987l3.493,-0c0,-1.93 1.564,-3.494 3.494,-3.494l-0,-3.493Z" style="fill:#f8f8f8;"/><path d="M20.984,38.409c-0,3.859 3.128,6.987 6.987,6.987c3.856,-0 6.986,-3.131 6.986,-6.987c0,-3.859 -3.128,-6.987 -6.986,-6.987l-0,3.493c1.929,0 3.493,1.564 3.493,3.494c-0,1.928 -1.565,3.493 -3.493,3.493c-1.93,0 -3.494,-1.564 -3.494,-3.493l-3.493,-0Z"/><path d="M13.989,45.403l-6.994,6.995l-0,-6.995l6.994,0Z" style="fill:#386fa4;"/><path d="M5.973,46.749c0,0.192 -0.155,0.347 -0.347,0.347c-0.192,0 -0.347,-0.155 -0.347,-0.347c-0,-0.191 0.155,-0.347 0.347,-0.347c0.192,0 0.347,0.156 0.347,0.347Z" style="fill:#f8f8f8;"/><path d="M4.554,46.749c-0,0.192 -0.156,0.347 -0.347,0.347c-0.192,0 -0.347,-0.155 -0.347,-0.347c-0,-0.191 0.155,-0.347 0.347,-0.347c0.191,0 0.347,0.156 0.347,0.347Z" style="fill:#f8f8f8;"/><path d="M3.135,46.749c-0,0.192 -0.156,0.347 -0.347,0.347c-0.192,0 -0.347,-0.155 -0.347,-0.347c-0,-0.191 0.155,-0.347 0.347,-0.347c0.191,0 0.347,0.156 0.347,0.347Z" style="fill:#f8f8f8;"/><path d="M1.716,46.749c-0,0.192 -0.156,0.347 -0.347,0.347c-0.192,0 -0.347,-0.155 -0.347,-0.347c-0,-0.191 0.155,-0.347 0.347,-0.347c0.191,0 0.347,0.156 0.347,0.347Z" style="fill:#f8f8f8;"/><path d="M5.973,48.184c0,0.191 -0.155,0.347 -0.347,0.347c-0.192,-0 -0.347,-0.156 -0.347,-0.347c-0,-0.192 0.155,-0.348 0.347,-0.348c0.192,0 0.347,0.156 0.347,0.348Z" style="fill:#f8f8f8;"/><path d="M4.554,48.184c-0,0.191 -0.156,0.347 -0.347,0.347c-0.192,-0 -0.347,-0.156 -0.347,-0.347c-0,-0.192 0.155,-0.348 0.347,-0.348c0.191,0 0.347,0.156 0.347,0.348Z" style="fill:#f8f8f8;"/><path d="M4.554,34.194c-0,0.192 -0.156,0.348 -0.347,0.348c-0.192,-0 -0.347,-0.156 -0.347,-0.348c-0,-0.191 0.155,-0.347 0.347,-0.347c0.191,0 0.347,0.156 0.347,0.347Z" style="fill:#f8f8f8;"/><path d="M3.135,48.184c-0,0.191 -0.156,0.347 -0.347,0.347c-0.192,-0 -0.347,-0.156 -0.347,-0.347c-0,-0.192 0.155,-0.348 0.347,-0.348c0.191,0 0.347,0.156 0.347,0.348Z" style="fill:#f8f8f8;"/><path d="M3.135,34.194c-0,0.192 -0.156,0.348 -0.347,0.348c-0.192,-0 -0.347,-0.156 -0.347,-0.348c-0,-0.191 0.155,-0.347 0.347,-0.347c0.191,0 0.347,0.156 0.347,0.347Z" style="fill:#f8f8f8;"/><path d="M1.716,48.184c-0,0.191 -0.156,0.347 -0.347,0.347c-0.192,-0 -0.347,-0.156 -0.347,-0.347c-0,-0.192 0.155,-0.348 0.347,-0.348c0.191,0 0.347,0.156 0.347,0.348Z" style="fill:#f8f8f8;"/><path d="M5.973,49.618c0,0.191 -0.155,0.347 -0.347,0.347c-0.192,-0 -0.347,-0.156 -0.347,-0.347c-0,-0.192 0.155,-0.347 0.347,-0.347c0.192,-0 0.347,0.155 0.347,0.347Z" style="fill:#f8f8f8;"/><path d="M4.554,49.618c-0,0.191 -0.156,0.347 -0.347,0.347c-0.192,-0 -0.347,-0.156 -0.347,-0.347c-0,-0.192 0.155,-0.347 0.347,-0.347c0.191,-0 0.347,0.155 0.347,0.347Z" style="fill:#f8f8f8;"/><path d="M4.554,35.629c-0,0.191 -0.156,0.347 -0.347,0.347c-0.192,-0 -0.347,-0.156 -0.347,-0.347c-0,-0.192 0.155,-0.347 0.347,-0.347c0.191,-0 0.347,0.155 0.347,0.347Z" style="fill:#f8f8f8;"/><path d="M3.135,49.618c-0,0.191 -0.156,0.347 -0.347,0.347c-0.192,-0 -0.347,-0.156 -0.347,-0.347c-0,-0.192 0.155,-0.347 0.347,-0.347c0.191,-0 0.347,0.155 0.347,0.347Z" style="fill:#f8f8f8;"/><path d="M3.135,35.629c-0,0.191 -0.156,0.347 -0.347,0.347c-0.192,-0 -0.347,-0.156 -0.347,-0.347c-0,-0.192 0.155,-0.347 0.347,-0.347c0.191,-0 0.347,0.155 0.347,0.347Z" style="fill:#f8f8f8;"/><path d="M1.716,49.618c-0,0.191 -0.156,0.347 -0.347,0.347c-0.192,-0 -0.347,-0.156 -0.347,-0.347c-0,-0.192 0.155,-0.347 0.347,-0.347c0.191,-0 0.347,0.155 0.347,0.347Z" style="fill:#f8f8f8;"/><path d="M5.973,51.052c0,0.191 -0.155,0.347 -0.347,0.347c-0.192,-0 -0.347,-0.156 -0.347,-0.347c-0,-0.192 0.155,-0.347 0.347,-0.347c0.192,-0 0.347,0.155 0.347,0.347Z" style="fill:#f8f8f8;"/><path d="M4.554,51.052c-0,0.191 -0.156,0.347 -0.347,0.347c-0.192,-0 -0.347,-0.156 -0.347,-0.347c-0,-0.192 0.155,-0.347 0.347,-0.347c0.191,-0 0.347,0.155 0.347,0.347Z" style="fill:#f8f8f8;"/><path d="M3.135,51.052c-0,0.191 -0.156,0.347 -0.347,0.347c-0.192,-0 -0.347,-0.156 -0.347,-0.347c-0,-0.192 0.155,-0.347 0.347,-0.347c0.191,-0 0.347,0.155 0.347,0.347Z" style="fill:#f8f8f8;"/><path d="M1.716,51.052c-0,0.191 -0.156,0.347 -0.347,0.347c-0.192,-0 -0.347,-0.156 -0.347,-0.347c-0,-0.192 0.155,-0.347 0.347,-0.347c0.191,-0 0.347,0.155 0.347,0.347Z" style="fill:#f8f8f8;"/><path d="M45.46,20.959l-5.24,-5.24l-5.24,5.24l10.48,0Z" style="fill:#f8f8f8;"/><path d="M45.46,10.48l-5.24,5.239l-5.24,-5.239l10.48,-0Z" style="fill:#f8f8f8;"/></g></svg>