<?xml version="1.0" encoding="UTF-8" standalone="no"?><!DOCTYPE svg PUBLIC "-//W3C//DTD SVG 1.1//EN" "http://www.w3.org/Graphics/SVG/1.1/DTD/svg11.dtd"><svg width="100%" height="100%" viewBox="0 0 62 56" version="1.1" xmlns="http://www.w3.org/2000/svg" xmlns:xlink="http://www.w3.org/1999/xlink" xml:space="preserve" xmlns:serif="http://www.serif.com/" style="fill-rule:evenodd;clip-rule:evenodd;stroke-linejoin:round;stroke-miterlimit:2;"><g><path d="M30.841,55.398l-29.129,-9.174l0,-27.652l29.313,8.656l-0.184,28.17Z" style="fill:#4d4d4d;"/><path d="M30.841,55.398l-29.129,-9.174l0,-27.652l29.313,8.656l-0.184,28.17Z" style="fill:#d6d6d6;"/><path d="M1.712,18.132l29.312,-8.779l29.239,8.779l-29.239,8.823l-29.312,-8.823Z" style="fill:#efefef;"/><path d="M1.712,18.132l29.312,-8.779l29.239,8.779l-29.239,8.823l-29.312,-8.823Z" style="fill:#f9f9f9;"/><path d="M60.146,18.572l-29.122,8.813l-0.231,28.013l28.561,-10.209l0.792,-26.617Z" style="fill:#9c9c9c;"/><path d="M31.258,32.822l-31.258,-9.514l0,-5.271l31.401,9.191l-0.143,5.594Z" style="fill:#b8b2b2;"/><path d="M0,18.037l31.025,-9.19l30.534,9.168l-30.158,9.213l-31.401,-9.191Z"/><path d="M61.559,18.015l-30.158,9.256l-0.143,5.551l30.301,-9.713l-0,-5.094Z" style="fill:#767676;"/><path d="M48.941,0.005c4.766,-0.168 8.635,3.566 8.635,8.332c0,4.766 -3.869,8.772 -8.635,8.94c-4.767,0.168 -8.636,-3.565 -8.636,-8.332c-0,-4.766 3.869,-8.772 8.636,-8.94Z" style="fill:#386fa4;"/><path d="M48.941,0.005c4.766,-0.168 8.635,3.566 8.635,8.332c0,4.766 -3.869,8.772 -8.635,8.94c-4.767,0.168 -8.636,-3.565 -8.636,-8.332c-0,-4.766 3.869,-8.772 8.636,-8.94Zm0.007,0.216c4.643,-0.163 8.412,3.473 8.412,8.116c0,4.651 -3.776,8.56 -8.427,8.724c-4.643,0.163 -8.412,-3.473 -8.412,-8.116c-0,-4.651 3.776,-8.56 8.427,-8.724Z" style="fill:#386fa4;"/><g transform="matrix(0.999379,-0.0352243,0,1.00062,-3.20233,-174.873)"><text x="48.238px" y="189.738px" style="font-family:'Avenir-Heavy', 'Avenir', sans-serif;font-weight:900;font-size:12.715px;fill:#e2e2e2;">1</text></g><g id="environ-pro-pack-icon" serif:id="environ pro-pack icon"><path d="M23.317,45.275l-15.585,-4.658l0,-7.795l15.585,4.658l0,7.795Z" style="fill:#eee;"/><path d="M23.662,37.138l-4.493,-1.343l-0,1.862l4.493,1.343l-0,-1.862Z"/><path d="M16.709,39.699l-10.093,-3.017l-0,3.601l10.093,3.017l-0,-3.601Z" style="fill:#386fa4;"/></g></g></svg>