<?xml version="1.0" encoding="UTF-8" standalone="no"?><!DOCTYPE svg PUBLIC "-//W3C//DTD SVG 1.1//EN" "http://www.w3.org/Graphics/SVG/1.1/DTD/svg11.dtd"><svg width="100%" height="100%" viewBox="0 0 73 68" version="1.1" xmlns="http://www.w3.org/2000/svg" xmlns:xlink="http://www.w3.org/1999/xlink" xml:space="preserve" xmlns:serif="http://www.serif.com/" style="fill-rule:evenodd;clip-rule:evenodd;stroke-linejoin:round;stroke-miterlimit:2;"><g><rect x="4.012" y="0" width="54.431" height="14.915" style="fill:#d6d6d6;"/><rect x="4.012" y="37.219" width="54.431" height="14.915" style="fill:#d6d6d6;"/><rect x="0" y="17.55" width="62.455" height="17.033"/><path d="M53.181,33.161c-1.008,1.008 -1.002,2.643 0.011,3.657l0.917,0.917c0.168,0.167 0.17,0.443 0.003,0.61c-0.168,0.168 -0.44,0.168 -0.61,-0.003l-2.138,-2.137c-1.014,-1.014 -2.649,-1.017 -3.657,-0.012c-1.007,1.008 -1.002,2.643 0.012,3.657l2.137,2.138c0.168,0.167 0.171,0.442 0.003,0.61c-0.167,0.167 -0.44,0.167 -0.61,-0.003l-3.361,-3.361c-1.014,-1.014 -2.649,-1.016 -3.657,-0.012c-1.008,1.008 -1.002,2.643 0.012,3.657l3.361,3.361c0.167,0.168 0.17,0.443 0.003,0.611c-0.168,0.167 -0.44,0.167 -0.611,-0.003l-11.915,-11.915c-1.013,-1.014 -2.648,-1.016 -3.656,-0.011c-1.008,1.007 -1.002,2.643 0.011,3.656l14.34,14.339c-1.88,-0.292 -5.042,-0.417 -6.984,1.522c-1.823,1.822 -1.774,3.083 -1.209,3.651c1.541,1.541 2.728,-0.895 9.751,2.461c7.024,3.358 11.537,3.08 14.623,0.045l4.253,-4.252c0.023,-0.023 -0.023,0.023 -0,-0c4.323,-4.324 5.561,-10.234 1.198,-14.595l-8.576,-8.576c-1.008,-1.014 -2.643,-1.016 -3.651,-0.012Z" style="fill:#386fa4;fill-rule:nonzero;"/><path d="M67.435,59.569c0,0 -4.279,4.28 -4.279,4.28c-4.18,4.11 -10.277,5.366 -19.788,0.818c-3.319,-1.586 -4.86,-1.47 -5.847,-1.443c-0.731,0.019 -1.355,-0.022 -1.932,-0.142c-1.134,-0.235 -2.171,-0.706 -3.24,-1.775c-1.493,-1.501 -3.601,-5.276 1.22,-10.096c0.349,-0.349 0.722,-0.66 1.114,-0.936l-8.472,-8.471c-2.802,-2.802 -2.797,-7.322 -0.007,-10.112c2.785,-2.777 7.303,-2.785 10.103,0.015l3.557,3.558c1.141,-0.828 2.473,-1.278 3.822,-1.346c0.233,-0.336 0.501,-0.656 0.8,-0.956c1.297,-1.293 2.97,-1.985 4.67,-2.073c0.233,-0.336 0.5,-0.655 0.799,-0.954l0.005,-0.005c2.79,-2.782 7.316,-2.78 10.097,0.016l8.575,8.576c6.184,6.179 5.065,14.556 -0.909,20.753l-0.288,0.293Zm-14.254,-26.408c-1.008,1.008 -1.002,2.643 0.011,3.657l0.917,0.917c0.168,0.167 0.17,0.443 0.003,0.61c-0.168,0.168 -0.44,0.168 -0.61,-0.003l-2.138,-2.137c-1.014,-1.014 -2.649,-1.017 -3.657,-0.012c-1.007,1.008 -1.002,2.643 0.012,3.657l2.137,2.138c0.168,0.167 0.171,0.442 0.003,0.61c-0.167,0.167 -0.44,0.167 -0.61,-0.003l-3.361,-3.361c-1.014,-1.014 -2.649,-1.016 -3.657,-0.012c-1.008,1.008 -1.002,2.643 0.012,3.657l3.361,3.361c0.167,0.168 0.17,0.443 0.003,0.611c-0.168,0.167 -0.44,0.167 -0.611,-0.003l-11.915,-11.915c-1.013,-1.014 -2.648,-1.016 -3.656,-0.011c-1.008,1.007 -1.002,2.643 0.011,3.656l14.34,14.339c-1.88,-0.292 -5.042,-0.417 -6.984,1.522c-1.823,1.822 -1.774,3.083 -1.209,3.651c1.541,1.541 2.728,-0.895 9.751,2.461c7.024,3.358 11.537,3.08 14.623,0.045l4.253,-4.252c0.023,-0.023 -0.023,0.023 -0,-0c4.323,-4.324 5.561,-10.234 1.198,-14.595l-8.576,-8.576c-1.008,-1.014 -2.643,-1.016 -3.651,-0.012Z" style="fill:#fff;"/><circle cx="9.327" cy="6.956" r="2.396" style="fill:#fff;"/><circle cx="5.56" cy="26.067" r="2.396" style="fill:#fff;"/><circle cx="9.327" cy="44.677" r="2.396" style="fill:#fff;"/><circle cx="16.861" cy="6.956" r="2.396" style="fill:#fff;"/><circle cx="13.094" cy="26.067" r="2.396" style="fill:#fff;"/><circle cx="16.861" cy="44.677" r="2.396" style="fill:#fff;"/></g></svg>